<?xml version="1.0" standalone="no"?>
<!DOCTYPE svg PUBLIC "-//W3C//DTD SVG 20010904//EN"
 "http://www.w3.org/TR/2001/REC-SVG-20010904/DTD/svg10.dtd">
<svg version="1.0" xmlns="http://www.w3.org/2000/svg"
 width="512.000000pt" height="512.000000pt" viewBox="0 0 512.000000 512.000000"
 preserveAspectRatio="xMidYMid meet">
<metadata>
Created by potrace 1.14, written by Peter Selinger 2001-2017
</metadata>
<g transform="translate(0.000000,512.000000) scale(0.100000,-0.100000)"
fill="#000000" stroke="none">
<path d="M1407 4544 c-451 -86 -745 -390 -821 -849 -38 -228 6 -588 99 -810
29 -69 103 -218 135 -270 16 -27 33 -57 37 -65 4 -8 14 -26 23 -40 10 -14 48
-72 86 -130 38 -58 72 -109 76 -115 4 -5 51 -68 105 -140 100 -136 147 -196
198 -256 16 -19 46 -55 65 -79 87 -109 336 -392 464 -529 178 -190 484 -502
643 -654 l50 -48 229 228 c220 219 457 466 583 609 19 22 55 62 80 89 25 28
69 76 96 109 28 32 58 68 68 80 39 46 54 64 117 141 36 44 67 82 70 85 17 16
158 200 219 285 39 55 79 110 89 123 56 75 211 335 261 437 128 261 176 462
175 745 0 169 -6 224 -39 341 -108 382 -385 633 -790 714 -68 14 -262 14 -330
1 -209 -42 -402 -151 -581 -330 -44 -45 -98 -103 -120 -131 -21 -27 -42 -52
-45 -55 -3 -3 -22 -31 -42 -62 -20 -32 -39 -58 -41 -58 -3 0 -25 30 -50 68
-141 209 -372 414 -566 500 -55 24 -149 55 -205 68 -55 12 -269 11 -338 -2z"/>
</g>
</svg>
