<svg width="47" height="48" viewBox="0 0 47 48" fill="none" xmlns="http://www.w3.org/2000/svg">
    <path id="heart" fill-rule="evenodd" clip-rule="evenodd"
        d="M23.4413 8.25754C23.4923 8.22881 23.4922 8.22868 23.4922 8.22868L23.4914 8.22716L23.4887 8.22254C23.4864 8.21847 23.4829 8.21245 23.4784 8.20455C23.4692 8.18875 23.4555 8.1654 23.4374 8.13503C23.4011 8.07428 23.3471 7.98544 23.2756 7.87269C23.1327 7.64718 22.9201 7.32596 22.6411 6.94246C22.0833 6.17557 21.2597 5.15902 20.1966 4.16062C18.0712 2.16465 14.9816 0.235248 11.1404 0.529946C7.30632 0.824101 4.01278 2.64735 2.02158 5.7084C0.0304444 8.76935 -0.653854 13.0607 0.714941 18.2834C1.40046 20.899 3.1637 24.0271 5.41796 27.2447C7.67306 30.4635 10.423 33.7768 13.0869 36.7635C15.7508 39.7502 18.3293 42.4112 20.2417 44.3253C21.1979 45.2824 21.9877 46.0529 22.5385 46.5841C22.8138 46.8498 23.0295 47.0556 23.1763 47.195C23.2497 47.2647 23.3059 47.3178 23.3437 47.3535C23.3627 47.3714 23.377 47.3849 23.3866 47.3939L23.4002 47.4067L23.4009 47.4073C23.4009 47.4073 23.4012 47.4076 23.4413 47.3649L23.4012 47.4076L23.4999 47.5V8.24219L23.4923 8.22881L23.4413 8.25754ZM23.5587 8.25754C23.5077 8.22881 23.5078 8.22868 23.5078 8.22868L23.5086 8.22716L23.5113 8.22254C23.5136 8.21847 23.5171 8.21245 23.5216 8.20455C23.5308 8.18875 23.5445 8.1654 23.5626 8.13503C23.5989 8.07428 23.6529 7.98544 23.7244 7.87269C23.8673 7.64718 24.0799 7.32596 24.3589 6.94246C24.9167 6.17557 25.7403 5.15902 26.8034 4.16062C28.9288 2.16465 32.0184 0.235248 35.8596 0.529946C39.6937 0.824101 42.9872 2.64735 44.9784 5.7084C46.9696 8.76935 47.6539 13.0607 46.2851 18.2834C45.5995 20.899 43.8363 24.0271 41.582 27.2447C39.3269 30.4635 36.577 33.7768 33.9131 36.7635C31.2492 39.7502 28.6707 42.4112 26.7583 44.3253C25.8021 45.2824 25.0123 46.0529 24.4615 46.5841C24.1862 46.8498 23.9705 47.0556 23.8237 47.195C23.7503 47.2647 23.6941 47.3178 23.6563 47.3535C23.6373 47.3714 23.623 47.3849 23.6134 47.3939L23.5998 47.4067L23.5991 47.4073C23.5991 47.4073 23.5988 47.4076 23.5587 47.3649L23.5988 47.4076L23.5001 47.5V8.24219L23.5077 8.22881L23.5587 8.25754Z"
        fill="black" />
</svg>